<svg viewBox="0 0 128 128" fill="none" xmlns="http://www.w3.org/2000/svg" height="500" width="500"><defs><rect id="a" width="1" height="1" /></defs><use href="#a" x="7" y="1" fill="#FFF000" /><use href="#a" x="8" y="1" fill="#FFF000"/><use href="#a" x="9" y="1" fill="#FFF000"/><use href="#a" x="6" y="2" fill="#FFF000"/><use href="#a" x="7" y="2" fill="#FFF000"/><use href="#a" x="8" y="2" fill="#FFF000"/><use href="#a" x="9" y="2" fill="#FFF000"/><use href="#a" x="10" y="2" fill="#FFF000"/><use href="#a" x="6" y="3" fill="#FFF000"/><use href="#a" x="7" y="3" fill="#000103"/><use href="#a" x="8" y="3" fill="#FFF000"/><use href="#a" x="9" y="3" fill="#FF8400"/><use href="#a" x="10" y="3" fill="#FF8400"/><use href="#a" x="1" y="4" fill="#FFF000"/><use href="#a" x="6" y="4" fill="#FFF000"/><use href="#a" x="7" y="4" fill="#FFF000"/><use href="#a" x="8" y="4" fill="#FFF000"/><use href="#a" x="9" y="4" fill="#FF8400"/><use href="#a" x="10" y="4" fill="#FF8400"/><use href="#a" x="11" y="4" fill="#FF8400"/><use href="#a" x="1" y="5" fill="#FFF000"/><use href="#a" x="2" y="5" fill="#FFF000"/><use href="#a" x="3" y="5" fill="#FFF000"/><use href="#a" x="6" y="5" fill="#FFF000"/><use href="#a" x="7" y="5" fill="#FFF000"/><use href="#a" x="8" y="5" fill="#FFF000"/><use href="#a" x="9" y="5" fill="#FFF000"/><use href="#a" x="1" y="6" fill="#FFF000"/><use href="#a" x="2" y="6" fill="#FFF000"/><use href="#a" x="3" y="6" fill="#FFF000"/><use href="#a" x="4" y="6" fill="#FFF000"/><use href="#a" x="5" y="6" fill="#FFF000"/><use href="#a" x="6" y="6" fill="#FFF000"/><use href="#a" x="7" y="6" fill="#FFF000"/><use href="#a" x="8" y="6" fill="#FFF000"/><use href="#a" x="9" y="6" fill="#FFF000"/><use href="#a" x="1" y="7" fill="#FFF000"/><use href="#a" x="2" y="7" fill="#FFF000"/><use href="#a" x="3" y="7" fill="#FFF000"/><use href="#a" x="4" y="7" fill="#FF8400"/><use href="#a" x="5" y="7" fill="#FF8400"/><use href="#a" x="6" y="7" fill="#FF8400"/><use href="#a" x="7" y="7" fill="#FFF000"/><use href="#a" x="8" y="7" fill="#FFF000"/><use href="#a" x="9" y="7" fill="#FFF000"/><use href="#a" x="1" y="8" fill="#FFF000"/><use href="#a" x="2" y="8" fill="#FFF000"/><use href="#a" x="3" y="8" fill="#FFF000"/><use href="#a" x="4" y="8" fill="#FF8400"/><use href="#a" x="5" y="8" fill="#FF8400"/><use href="#a" x="6" y="8" fill="#FF8400"/><use href="#a" x="7" y="8" fill="#FFF000"/><use href="#a" x="8" y="8" fill="#FFF000"/><use href="#a" x="9" y="8" fill="#FFF000"/><use href="#a" x="2" y="9" fill="#FFF000"/><use href="#a" x="3" y="9" fill="#FFF000"/><use href="#a" x="4" y="9" fill="#FFF000"/><use href="#a" x="5" y="9" fill="#FFF000"/><use href="#a" x="6" y="9" fill="#FFF000"/><use href="#a" x="7" y="9" fill="#FFF000"/><use href="#a" x="8" y="9" fill="#FFF000"/><use href="#a" x="3" y="7" fill="#FF8400"/></svg>