<svg viewBox="0 0 32 32" fill="none" xmlns="http://www.w3.org/2000/svg" id="Ghost-Flat--Streamline-Fluent-Emoji" height="32" width="32">
  <path d="M16.0338 1.5c-5.2901 0 -9.77932 3.79167 -10.53558 8.9044l-0.00123 0.0083L5.25951 12.5H2.74776c-1.08736 0 -1.6272 1.3199 -0.86356 2.0836l2.81767 2.8176 -1.14522 10.0657c-0.20678 1.3865 0.72583 2.8126 2.20913 3.001 1.17029 0.1481 2.39172 -0.2165 3.29658 -1.0976 1.15084 -1.1205 3.02824 -1.1205 4.17914 0 1.539 1.4987 4.0352 1.4987 5.5743 0 1.1508 -1.1205 3.0283 -1.1205 4.1791 0 0.824 0.8024 1.9054 1.1665 2.9677 1.1211l0.0018 -0.0001c1.584 -0.0734 2.759 -1.5018 2.5364 -3.0431l-1.1423 -10.0818 2.7828 -2.7828c0.7637 -0.7637 0.2238 -2.0836 -0.8635 -2.0836h-2.4707l-0.2365 -2.0867 -0.0011 -0.0079C25.8238 5.29103 21.323 1.5 16.0338 1.5Z" fill="#9b9b9b" stroke-width="1"></path>
  <path d="m6.15216 13.5 0.33649 -2.9575C7.17333 5.94213 11.2241 2.5 16.0338 2.5c4.8106 0 8.8704 3.44297 9.545 8.0419l0.3351 2.9581h3.3639c0.1926 0 0.2928 0.2401 0.1564 0.3764l-3.1237 3.1237 1.1985 10.5772 0.0012 0.0084c0.1412 0.9544 -0.5916 1.8599 -1.5915 1.9066 -0.8059 0.0342 -1.6131 -0.2415 -2.2262 -0.8384 -1.539 -1.4987 -4.0353 -1.4987 -5.5743 0 -1.1509 1.1206 -3.0283 1.1206 -4.1791 0 -1.5391 -1.4987 -4.03532 -1.4987 -5.5744 0 -0.67622 0.6585 -1.59029 0.9337 -2.47336 0.8219 -0.87437 -0.1112 -1.48096 -0.9779 -1.34471 -1.8676l0.00146 -0.0095 1.20187 -10.5636 -3.15867 -3.1587c-0.13636 -0.1363 -0.0362 -0.3764 0.15644 -0.3764h3.40443Z" fill="#ffffff" stroke-width="1"></path>
  <path d="M21 12H11s0 5 5 5 5 -5 5 -5Z" fill="#89029c" stroke-width="1"></path>
  <path d="m19.5884 16.0583 0.177 -0.8854c0.1314 -0.6566 -0.2762 -1.3006 -0.9258 -1.463 -1.8644 -0.4661 -3.8148 -0.4661 -5.6792 0 -0.6496 0.1624 -1.0571 0.8064 -0.9258 1.463l0.1771 0.8854C12.7538 17.7688 14.2556 19 16 19c1.7444 0 3.2463 -1.2312 3.5884 -2.9417Z" fill="#f70a8d" stroke-width="1"></path>
  <path d="M11.7237 7.05277c-0.247 -0.12349 -0.5473 -0.02338 -0.6708 0.22361 -0.1235 0.24699 -0.0234 0.54733 0.2236 0.67082l1.1056 0.55279 -1.1056 0.55278c-0.247 0.1235 -0.3471 0.42383 -0.2236 0.67082 0.1235 0.24699 0.4238 0.34711 0.6708 0.22361l2 -1c0.1694 -0.08469 0.2764 -0.25783 0.2764 -0.44721 0 -0.18939 -0.107 -0.36252 -0.2764 -0.44722l-2 -1Z" fill="#321b41" stroke-width="1"></path>
  <path d="M21.0001 8.49999c0 0.82842 -0.6716 1.5 -1.5 1.5s-1.5 -0.67158 -1.5 -1.5c0 -0.82843 0.6716 -1.5 1.5 -1.5s1.5 0.67157 1.5 1.5Z" fill="#321b41" stroke-width="1"></path>
</svg>