<svg xmlns="http://www.w3.org/2000/svg" version="1.1" width="64px" height="64px"
    style="shape-rendering:geometricPrecision; text-rendering:geometricPrecision; image-rendering:optimizeQuality; fill-rule:evenodd; clip-rule:evenodd"
    xmlns:xlink="http://www.w3.org/1999/xlink">
    <g>
        <path style="opacity:0.867" fill="#8b795c"
            d="M 7.5,-0.5 C 9.16667,-0.5 10.8333,-0.5 12.5,-0.5C 14.4632,0.820176 16.4632,2.15351 18.5,3.5C 18.6282,5.08979 19.2949,6.42312 20.5,7.5C 22.7466,6.62578 25.0799,6.29245 27.5,6.5C 27.4346,6.93822 27.6012,7.27155 28,7.5C 29.4382,6.28151 31.1049,5.61485 33,5.5C 36.8618,6.12248 40.6951,6.78915 44.5,7.5C 46.8472,10.8611 48.6806,14.5277 50,18.5C 50.8621,28.0052 52.1954,37.3385 54,46.5C 48.4234,50.7062 42.5901,54.5396 36.5,58C 34.8659,58.4935 33.1992,58.6602 31.5,58.5C 30.8333,57.5 30.1667,56.5 29.5,55.5C 28.8825,53.7708 27.8825,52.2708 26.5,51C 21.0481,50.2191 16.0481,48.3858 11.5,45.5C 10.3951,44.3995 9.06181,43.7329 7.5,43.5C 3.83333,41.8333 1.16667,39.1667 -0.5,35.5C -0.5,34.1667 -0.5,32.8333 -0.5,31.5C 1.48504,27.4553 4.81838,25.2887 9.5,25C 5.67025,20.0211 3.00358,14.5211 1.5,8.5C 1.59008,6.77224 1.92341,5.10557 2.5,3.5C 4.21002,2.11276 5.87669,0.77943 7.5,-0.5 Z" />
    </g>
    <g>
        <path style="opacity:0.009" fill="#010100"
            d="M 27.5,6.5 C 25.0799,6.29245 22.7466,6.62578 20.5,7.5C 19.2949,6.42312 18.6282,5.08979 18.5,3.5C 21.1481,1.16775 23.9815,1.16775 27,3.5C 27.4828,4.44802 27.6495,5.44802 27.5,6.5 Z" />
    </g>
    <g>
        <path style="opacity:1" fill="#f5f4f0"
            d="M 8.5,3.5 C 10.7224,3.17798 12.5557,3.84464 14,5.5C 16,9.5 18,13.5 20,17.5C 20.5503,10.1245 23.5503,8.79117 29,13.5C 31.0709,8.70177 33.7375,8.36844 37,12.5C 38.0665,10.7174 39.5665,10.2174 41.5,11C 44.5956,14.1822 46.4289,18.0156 47,22.5C 47.3333,27.8333 47.6667,33.1667 48,38.5C 48.9704,40.2738 49.8037,42.1072 50.5,44C 45.2832,47.8634 39.7832,51.3634 34,54.5C 32.9686,51.4605 31.1353,48.9605 28.5,47C 19.2664,45.4668 11.0997,41.6335 4,35.5C 3.37214,32.4193 4.53881,30.4193 7.5,29.5C 10.4222,30.7976 13.4222,31.7976 16.5,32.5C 14.0948,25.0229 10.5948,18.0229 6,11.5C 5.01816,8.2253 5.85149,5.55863 8.5,3.5 Z" />
    </g>
</svg>