<?xml version="1.0" encoding="utf-8"?>
<svg fill="#000000" width="800px" height="800px" viewBox="0 0 1920 1920"
    xmlns="http://www.w3.org/2000/svg">
    <g fill-rule="evenodd">
        <!-- <rect x="50" y="150"
            width="1300" height="1700"
            fill="transparent" stroke="black"
            stroke-width="100" rx="120"
            clip-path="url(#review-icon-cut-side)"
        /> -->
        <path fill-rule="nonzero"
            d="M0
        53v1813.33h1386.67v-320H1280v213.34H106.667V159.667H1280V373h106.67V53z" />

        <!-- <rect x="1300" y="400" width="100" height="1000" fill="white" stroke="white" /> -->

        <path
            d="M1226.67 1439.67c113.33 0 217.48-39.28 299.6-104.96l302.37 302.65c20.82 20.84 54.59 20.85 75.42.04 20.84-20.82 20.86-54.59.04-75.43l-302.41-302.68c65.7-82.12 104.98-186.29 104.98-299.623 0-265.097-214.91-480-480-480-265.1 0-480.003 214.903-480.003 480 0 265.093 214.903 480.003 480.003 480.003Zm0-106.67c206.18 0 373.33-167.15 373.33-373.333 0-206.187-167.15-373.334-373.33-373.334-206.19 0-373.337 167.147-373.337 373.334 0 206.183 167.147 373.333 373.337 373.333Z" />
    </g>
</svg>