<svg viewBox="0 0 128 128" fill="none" xmlns="http://www.w3.org/2000/svg" height="32" width="32">
  <defs>
    <rect id="a" width="8" height="8" rx="0.5" stroke-width="0.2" />
  </defs>

  <use href="#a" x="56" y="8" fill="#FFF000" stroke="#FFF000" />
  <use href="#a" x="64" y="8" fill="#FFF000" stroke="#FFF000" />
  <use href="#a" x="72" y="8" fill="#FFF000" stroke="#FFF000" />
  <use href="#a" x="48" y="16" fill="#FFF000" stroke="#FFF000" />
  <use href="#a" x="56" y="16" fill="#FFF000" stroke="#FFF000" />
  <use href="#a" x="64" y="16" fill="#FFF000" stroke="#FFF000" />
  <use href="#a" x="72" y="16" fill="#FFF000" stroke="#FFF000" />
  <use href="#a" x="80" y="16" fill="#FFF000" stroke="#FFF000" />
  <use href="#a" x="48" y="24" fill="#FFF000" stroke="#FFF000" />
  <use href="#a" x="56" y="24" fill="#000103" stroke="#000103" />
  <use href="#a" x="64" y="24" fill="#FFF000" stroke="#FFF000" />
  <use href="#a" x="72" y="24" fill="#FF8400" stroke="#FF8400" />
  <use href="#a" x="80" y="24" fill="#FF8400" stroke="#FF8400" />
  <use href="#a" x="8" y="32" fill="#FFF000" stroke="#FFF000" />
  <use href="#a" x="48" y="32" fill="#FFF000" stroke="#FFF000" />
  <use href="#a" x="56" y="32" fill="#FFF000" stroke="#FFF000" />
  <use href="#a" x="64" y="32" fill="#FFF000" stroke="#FFF000" />
  <use href="#a" x="72" y="32" fill="#FF8400" stroke="#FF8400" />
  <use href="#a" x="80" y="32" fill="#FF8400" stroke="#FF8400" />
  <use href="#a" x="88" y="32" fill="#FF8400" stroke="#FF8400" />
  <use href="#a" x="8" y="40" fill="#FFF000" stroke="#FFF000" />
  <use href="#a" x="16" y="40" fill="#FFF000" stroke="#FFF000" />
  <use href="#a" x="24" y="40" fill="#FFF000" stroke="#FFF000" />
  <use href="#a" x="48" y="40" fill="#FFF000" stroke="#FFF000" />
  <use href="#a" x="56" y="40" fill="#FFF000" stroke="#FFF000" />
  <use href="#a" x="64" y="40" fill="#FFF000" stroke="#FFF000" />
  <use href="#a" x="72" y="40" fill="#FFF000" stroke="#FFF000" />
  <use href="#a" x="8" y="48" fill="#FFF000" stroke="#FFF000" />
  <use href="#a" x="16" y="48" fill="#FFF000" stroke="#FFF000" />
  <use href="#a" x="24" y="48" fill="#FFF000" stroke="#FFF000" />
  <use href="#a" x="32" y="48" fill="#FFF000" stroke="#FFF000" />
  <use href="#a" x="40" y="48" fill="#FFF000" stroke="#FFF000" />
  <use href="#a" x="48" y="48" fill="#FFF000" stroke="#FFF000" />
  <use href="#a" x="56" y="48" fill="#FFF000" stroke="#FFF000" />
  <use href="#a" x="64" y="48" fill="#FFF000" stroke="#FFF000" />
  <use href="#a" x="72" y="48" fill="#FFF000" stroke="#FFF000" />
  <use href="#a" x="8" y="56" fill="#FFF000" stroke="#FFF000" />
  <use href="#a" x="16" y="56" fill="#FFF000" stroke="#FFF000" />
  <use href="#a" x="24" y="56" fill="#FFF000" stroke="#FFF000" />
  <use href="#a" x="32" y="56" fill="#FF8400" stroke="#FF8400" />
  <use href="#a" x="40" y="56" fill="#FF8400" stroke="#FF8400" />
  <use href="#a" x="48" y="56" fill="#FF8400" stroke="#FF8400" />
  <use href="#a" x="56" y="56" fill="#FFF000" stroke="#FFF000" />
  <use href="#a" x="64" y="56" fill="#FFF000" stroke="#FFF000" />
  <use href="#a" x="72" y="56" fill="#FFF000" stroke="#FFF000" />
  <use href="#a" x="8" y="64" fill="#FFF000" stroke="#FFF000" />
  <use href="#a" x="16" y="64" fill="#FFF000" stroke="#FFF000" />
  <use href="#a" x="24" y="64" fill="#FFF000" stroke="#FFF000" />
  <use href="#a" x="32" y="64" fill="#FF8400" stroke="#FF8400" />
  <use href="#a" x="40" y="64" fill="#FF8400" stroke="#FF8400" />
  <use href="#a" x="48" y="64" fill="#FF8400" stroke="#FF8400" />
  <use href="#a" x="56" y="64" fill="#FFF000" stroke="#FFF000" />
  <use href="#a" x="64" y="64" fill="#FFF000" stroke="#FFF000" />
  <use href="#a" x="72" y="64" fill="#FFF000" stroke="#FFF000" />
  <use href="#a" x="16" y="72" fill="#FFF000" stroke="#FFF000" />
  <use href="#a" x="24" y="72" fill="#FFF000" stroke="#FFF000" />
  <use href="#a" x="32" y="72" fill="#FFF000" stroke="#FFF000" />
  <use href="#a" x="40" y="72" fill="#FFF000" stroke="#FFF000" />
  <use href="#a" x="48" y="72" fill="#FFF000" stroke="#FFF000" />
  <use href="#a" x="56" y="72" fill="#FFF000" stroke="#FFF000" />
  <use href="#a" x="64" y="72" fill="#FFF000" stroke="#FFF000" />
  <use href="#a" x="24" y="52" fill="#FF8400" stroke="#FF8400" />
</svg>