<svg id="Layer_1" data-name="Layer 1" xmlns="http://www.w3.org/2000/svg" xmlns:xlink="http://www.w3.org/1999/xlink" viewBox="0 0 147.07 219.53">
	<title>
		Kurt Avatar
	</title>
	<g>
		<path fill="#364a59" d="M110.16,175.34c-12-1.25-23.92.17-36,.25-10-.08-20-.42-30-.5-20.91.91-30.41,10.66-33.75,27-1,4.74-.25,12.42-.25,17.25,42.58-.08,85.92.33,128.5.25,0-4.58-.12-9.67-.25-14.25C137.94,189.39,129,177.3,110.16,175.34Z" transform="translate(-1.43 -2.07)" />
		<path stroke="#364a59" fill="none" stroke-miterlimit="22.93" stroke-width="4px" d="M110.16,175.34c-12-1.25-23.92.17-36,.25-10-.08-20-.42-30-.5-20.91.91-30.41,10.66-33.75,27-1,4.74-.25,12.42-.25,17.25,42.58-.08,85.92.33,128.5.25,0-4.58-.12-9.67-.25-14.25C137.94,189.39,129,177.3,110.16,175.34Z" transform="translate(-1.43 -2.07)" />
		<polygon fill="#d2d3d4" points="105.48 173.27 41.11 173.15 41.1 217.27 105.61 217.4 105.48 173.27" />
		<polygon stroke="#364a59" fill="none" stroke-miterlimit="22.93" stroke-width="4px" points="105.48 173.27 41.11 173.15 41.1 217.27 105.61 217.4 105.48 173.27" />
		<polygon fill="#41444c" points="80.48 187.77 67.23 186.52 62.23 195.77 69.48 204.02 63.73 217.02 84.23 217.15 78.98 204.52 84.48 196.02 80.48 187.77" />
		<polygon stroke="#364a59" fill="none" stroke-miterlimit="22.93" stroke-width="4px" points="80.48 187.77 67.23 186.52 62.23 195.77 69.48 204.02 63.73 217.02 84.23 217.15 78.98 204.52 84.48 196.02 80.48 187.77" />
		<path fill="#e9e3d7" d="M124.85,82l-.25,31.5C142.15,108,143.55,90.24,124.85,82Z" transform="translate(-1.43 -2.07)" />
		<path stroke="#364a59" fill="none" stroke-miterlimit="22.93" stroke-width="4px" d="M124.85,82l-.25,31.5C142.15,108,143.55,90.24,124.85,82Z" transform="translate(-1.43 -2.07)" />
		<path fill="#e9e3d7" d="M25,82l.25,31.5C7.7,108,6.3,90.24,25,82Z" transform="translate(-1.43 -2.07)" />
		<path stroke="#364a59" fill="none" stroke-miterlimit="22.93" stroke-width="4px" d="M25,82l.25,31.5C7.7,108,6.3,90.24,25,82Z" transform="translate(-1.43 -2.07)" />
		<path fill="#653614" d="M22.85,85.46l-7.5,3C5.05,72-.45,54.23,6.6,36.46c3.33,2.5,6.41,6,9.75,8.5-2.46-18-1.27-33.68,19-37q.24,6,.5,12C51.45,5.35,73.4,2.23,94.35,5c-1.5,4-5.5,9-7,13,14.61-8.88,33.55-7.28,57.5,6.5L133.35,33c7.67,17.17,4.69,34.34-1,51.5-2.17.34-4.84.67-7,1Z" transform="translate(-1.43 -2.07)" />
		<path stroke="#364a59" fill="none" stroke-miterlimit="22.93" stroke-width="4px" d="M22.85,85.46l-7.5,3C5.05,72-.45,54.23,6.6,36.46c3.33,2.5,6.41,6,9.75,8.5-2.46-18-1.27-33.68,19-37q.24,6,.5,12C51.45,5.35,73.4,2.23,94.35,5c-1.5,4-5.5,9-7,13,14.61-8.88,33.55-7.28,57.5,6.5L133.35,33c7.67,17.17,4.69,34.34-1,51.5-2.17.34-4.84.67-7,1Z" transform="translate(-1.43 -2.07)" />
		<path fill="#d2d3d4" d="M100.91,175.09,48,175.72l5.38,21.12c5.17-2.75,9.83-5.5,15-8.25,4.42,3.88,10.58,2.64,15,.5l11.75,7.5Z" transform="translate(-1.43 -2.07)" />
		<path stroke="#364a59" fill="none" stroke-miterlimit="22.93" stroke-width="4px" d="M100.91,175.09,48,175.72l5.38,21.12c5.17-2.75,9.83-5.5,15-8.25,4.42,3.88,10.58,2.64,15,.5l11.75,7.5Z" transform="translate(-1.43 -2.07)" />
		<path fill="#e9e3d7" d="M87.91,167.84l-25.5,1.25c-1.29,14.28,3,21.06,11.75,22C86.71,190.44,90.2,181,87.91,167.84Z" transform="translate(-1.43 -2.07)" />
		<path stroke="#364a59" fill="none" stroke-miterlimit="22.93" stroke-width="4px" d="M87.91,167.84l-25.5,1.25c-1.29,14.28,3,21.06,11.75,22C86.71,190.44,90.2,181,87.91,167.84Z" transform="translate(-1.43 -2.07)" />
		<path fill="#e9e3d7" d="M124.89,132.21c-23.29,48.32-69.88,58-101.5,1.5V57.21c2.58-12.32,10.06-18.4,20-20,8.93-1.41,18.93,5.81,31,5.46s20.8-7.7,29.14-6.41c9,1.4,16.2,7.15,20.86,18.41Q124.63,93.47,124.89,132.21Z" transform="translate(-1.43 -2.07)" />
		<path stroke="#364a59" fill="none" stroke-miterlimit="22.93" stroke-width="4px" d="M124.89,132.21c-23.29,48.32-69.88,58-101.5,1.5V57.21c2.58-12.32,10.06-18.4,20-20,8.93-1.41,18.93,5.81,31,5.46s20.8-7.7,29.14-6.41c9,1.4,16.2,7.15,20.86,18.41Q124.63,93.47,124.89,132.21Z" transform="translate(-1.43 -2.07)" />
		<path stroke="#364a59" fill="none" stroke-miterlimit="22.93" stroke-width="4px" d="M35.35,73.71A31.3,31.3,0,0,1,55.6,70.46" transform="translate(-1.43 -2.07)" />
		<path stroke="#364a59" fill="none" stroke-miterlimit="22.93" stroke-width="4px" d="M113.27,73.79A31.25,31.25,0,0,0,93,70.54" transform="translate(-1.43 -2.07)" />
		<path stroke="#364a59" fill="none" stroke-miterlimit="22.93" stroke-width="4px" d="M65.1,114.21c6.16,3.25,12.33,2.76,18.5,0" transform="translate(-1.43 -2.07)" />
		<path fill="#e9e3d7" d="M75.6,146c-12.85.48-19.62-5.28-19-15H92.35C92.27,138,89.21,145.46,75.6,146Z" transform="translate(-1.43 -2.07)" />
		<path stroke="#364a59" fill="none" stroke-miterlimit="22.93" stroke-width="4px" d="M75.6,146c-12.85.48-19.62-5.28-19-15H92.35C92.27,138,89.21,145.46,75.6,146Z" transform="translate(-1.43 -2.07)" />
		<path stroke="#364a59" fill="none" stroke-miterlimit="22.93" stroke-width="4px" d="M48.1,78.54a3,3,0,1,1-3,3A3,3,0,0,1,48.1,78.54Z" transform="translate(-1.43 -2.07)" />
		<path stroke="#364a59" fill="none" stroke-miterlimit="22.93" stroke-width="4px" d="M100,78.54a3,3,0,1,1-3,3A3,3,0,0,1,100,78.54Z" transform="translate(-1.43 -2.07)" />
	</g>
</svg>
