<svg xmlns="http://www.w3.org/2000/svg" width="920.29689" height="567.13599"
    viewBox="0 0 920.29689 567.13599"
    xmlns:xlink="http://www.w3.org/1999/xlink" role="img" artist="Katerina Limpitsouni"
    source="https://undraw.co/">
    <polygon points="69.4 554.299 81.66 554.299 87.492 507.011 69.398 507.012 69.4 554.299"
        fill="--illustration-skin-colour" />
    <path
        d="M206.124,716.7287l24.144-.001h.001A15.38728,15.38728,0,0,1,245.65551,732.114v.5l-39.53076.00146Z"
        transform="translate(-139.85155 -166.43201)" fill="--illustration-suit-colour" />
    <polygon points="111.4 554.299 123.66 554.299 129.492 507.011 111.398 507.012 111.4 554.299"
        fill="--illustration-skin-colour" />
    <path
        d="M248.124,716.7287l24.144-.001h.001A15.38728,15.38728,0,0,1,287.65551,732.114v.5l-39.53076.00146Z"
        transform="translate(-139.85155 -166.43201)" fill="--illustration-suit-colour" />
    <polygon
        points="157.987 348.297 128.038 533.282 108.038 532.282 108.534 362.427 157.987 348.297"
        fill="--illustration-suit-pants-colour" />
    <path
        d="M217.09914,458.21162l72.66561,1.00922,8.07394,55.50839-49.453,23.21265L226.88976,694.7142l-19-1-6.93857-194.12364Z"
        transform="translate(-139.85155 -166.43201)" fill="--illustration-suit-pants-colour" />
    <circle cx="120.64505" cy="126.26344" r="22.20337" fill="--illustration-skin-colour" />
    <polygon
        points="131.038 161.282 143.858 177.735 137.802 303.89 90.368 302.881 82.294 192.874 92.386 164.615 96.038 158.282 131.038 161.282"
        fill="#e4e4e4" />
    <path
        d="M292.79249,391.60143l11.10168,42.38827-11.10168,42.38824,18.16638,24.22187,16.14792-76.70258s-12.111-62.57309-13.12021-69.63785-3.02771-8.074-3.02771-8.074l-8.074,1.00925Z"
        transform="translate(-139.85155 -166.43201)" fill="--illustration-suit-colour" />
    <polygon
        points="72.202 241.317 65.137 254.438 63.118 276.641 67.155 301.872 53.026 325.085 38.897 261.502 54.035 179.753 60.091 179.753 72.202 241.317"
        fill="--illustration-suit-colour" />
    <path
        d="M241.29467,298.44652l-.526,8.97561s-6.51241-14.72671-7.52165-29.86535,16.14792-18.16638,26.24035-19.17563S286.737,264.4366,286.737,272.51057s-18.16642,6.05549-25.23111,4.037-10.09244,15.13867-10.09244,15.13867l-4.037,1.00925Z"
        transform="translate(-139.85155 -166.43201)" fill="--illustration-hair-colour" />
    <path
        d="M295.8202,405.73082l-4.037,38.35129,8.07394,23.21264,5.04624,22.20337s-.00006,21.19416-20.18488,22.20337-78.721-1.00921-78.721-1.00921-8.07395-1.00928-15.13866-17.15717,14.12942-31.28656,14.12942-31.28656l6.0555-21.19415L209.02528,414.814l-14.12957-68.62863,41.88364-21.69876,10.59706,103.44754,22.708-100.4198,7.56934,5.55084,32.29583,13.12018Z"
        transform="translate(-139.85155 -166.43201)" fill="--illustration-suit-colour" />
</svg>