<?xml version="1.0" encoding="utf-8"?>
<svg width="296" height="296" viewBox="0 0 296 296"
    xmlns="http://www.w3.org/2000/svg" xmlns:xlink="http://www.w3.org/1999/xlink"
    xmlns:ev="http://www.w3.org/2001/xml-events">

    <defs>
        <!-- This is already included in src/components/svgSetup.ts -->
        <rect id="qrPixel" width="8" height="8" />
    </defs>

    <g id="qr-svg-kurtlourens-com">
        <g fill="--control-foreground-colour">
            <use xlink:href="#qrPixel" x="32" y="32" />
            <use xlink:href="#qrPixel" x="32" y="40" />
            <use xlink:href="#qrPixel" x="32" y="48" />
            <use xlink:href="#qrPixel" x="32" y="56" />
            <use xlink:href="#qrPixel" x="32" y="64" />
            <use xlink:href="#qrPixel" x="32" y="72" />
            <use xlink:href="#qrPixel" x="32" y="80" />
            <use xlink:href="#qrPixel" x="32" y="96" />
            <use xlink:href="#qrPixel" x="32" y="112" />
            <use xlink:href="#qrPixel" x="32" y="120" />
            <use xlink:href="#qrPixel" x="32" y="144" />
            <use xlink:href="#qrPixel" x="32" y="152" />
            <use xlink:href="#qrPixel" x="32" y="160" />
            <use xlink:href="#qrPixel" x="32" y="168" />
            <use xlink:href="#qrPixel" x="32" y="184" />
            <use xlink:href="#qrPixel" x="32" y="192" />
            <use xlink:href="#qrPixel" x="32" y="208" />
            <use xlink:href="#qrPixel" x="32" y="216" />
            <use xlink:href="#qrPixel" x="32" y="224" />
            <use xlink:href="#qrPixel" x="32" y="232" />
            <use xlink:href="#qrPixel" x="32" y="240" />
            <use xlink:href="#qrPixel" x="32" y="248" />
            <use xlink:href="#qrPixel" x="32" y="256" />
            <use xlink:href="#qrPixel" x="40" y="32" />
            <use xlink:href="#qrPixel" x="40" y="80" />
            <use xlink:href="#qrPixel" x="40" y="104" />
            <use xlink:href="#qrPixel" x="40" y="128" />
            <use xlink:href="#qrPixel" x="40" y="136" />
            <use xlink:href="#qrPixel" x="40" y="144" />
            <use xlink:href="#qrPixel" x="40" y="152" />
            <use xlink:href="#qrPixel" x="40" y="176" />
            <use xlink:href="#qrPixel" x="40" y="184" />
            <use xlink:href="#qrPixel" x="40" y="208" />
            <use xlink:href="#qrPixel" x="40" y="256" />
            <use xlink:href="#qrPixel" x="48" y="32" />
            <use xlink:href="#qrPixel" x="48" y="48" />
            <use xlink:href="#qrPixel" x="48" y="56" />
            <use xlink:href="#qrPixel" x="48" y="64" />
            <use xlink:href="#qrPixel" x="48" y="80" />
            <use xlink:href="#qrPixel" x="48" y="96" />
            <use xlink:href="#qrPixel" x="48" y="136" />
            <use xlink:href="#qrPixel" x="48" y="144" />
            <use xlink:href="#qrPixel" x="48" y="152" />
            <use xlink:href="#qrPixel" x="48" y="160" />
            <use xlink:href="#qrPixel" x="48" y="168" />
            <use xlink:href="#qrPixel" x="48" y="208" />
            <use xlink:href="#qrPixel" x="48" y="224" />
            <use xlink:href="#qrPixel" x="48" y="232" />
            <use xlink:href="#qrPixel" x="48" y="240" />
            <use xlink:href="#qrPixel" x="48" y="256" />
            <use xlink:href="#qrPixel" x="56" y="32" />
            <use xlink:href="#qrPixel" x="56" y="48" />
            <use xlink:href="#qrPixel" x="56" y="56" />
            <use xlink:href="#qrPixel" x="56" y="64" />
            <use xlink:href="#qrPixel" x="56" y="80" />
            <use xlink:href="#qrPixel" x="56" y="96" />
            <use xlink:href="#qrPixel" x="56" y="128" />
            <use xlink:href="#qrPixel" x="56" y="144" />
            <use xlink:href="#qrPixel" x="56" y="152" />
            <use xlink:href="#qrPixel" x="56" y="168" />
            <use xlink:href="#qrPixel" x="56" y="192" />
            <use xlink:href="#qrPixel" x="56" y="208" />
            <use xlink:href="#qrPixel" x="56" y="224" />
            <use xlink:href="#qrPixel" x="56" y="232" />
            <use xlink:href="#qrPixel" x="56" y="240" />
            <use xlink:href="#qrPixel" x="56" y="256" />
            <use xlink:href="#qrPixel" x="64" y="32" />
            <use xlink:href="#qrPixel" x="64" y="48" />
            <use xlink:href="#qrPixel" x="64" y="56" />
            <use xlink:href="#qrPixel" x="64" y="64" />
            <use xlink:href="#qrPixel" x="64" y="80" />
            <use xlink:href="#qrPixel" x="64" y="112" />
            <use xlink:href="#qrPixel" x="64" y="120" />
            <use xlink:href="#qrPixel" x="64" y="128" />
            <use xlink:href="#qrPixel" x="64" y="136" />
            <use xlink:href="#qrPixel" x="64" y="184" />
            <use xlink:href="#qrPixel" x="64" y="208" />
            <use xlink:href="#qrPixel" x="64" y="224" />
            <use xlink:href="#qrPixel" x="64" y="232" />
            <use xlink:href="#qrPixel" x="64" y="240" />
            <use xlink:href="#qrPixel" x="64" y="256" />
            <use xlink:href="#qrPixel" x="72" y="32" />
            <use xlink:href="#qrPixel" x="72" y="80" />
            <use xlink:href="#qrPixel" x="72" y="96" />
            <use xlink:href="#qrPixel" x="72" y="104" />
            <use xlink:href="#qrPixel" x="72" y="112" />
            <use xlink:href="#qrPixel" x="72" y="120" />
            <use xlink:href="#qrPixel" x="72" y="160" />
            <use xlink:href="#qrPixel" x="72" y="176" />
            <use xlink:href="#qrPixel" x="72" y="184" />
            <use xlink:href="#qrPixel" x="72" y="208" />
            <use xlink:href="#qrPixel" x="72" y="256" />
            <use xlink:href="#qrPixel" x="80" y="32" />
            <use xlink:href="#qrPixel" x="80" y="40" />
            <use xlink:href="#qrPixel" x="80" y="48" />
            <use xlink:href="#qrPixel" x="80" y="56" />
            <use xlink:href="#qrPixel" x="80" y="64" />
            <use xlink:href="#qrPixel" x="80" y="72" />
            <use xlink:href="#qrPixel" x="80" y="80" />
            <use xlink:href="#qrPixel" x="80" y="96" />
            <use xlink:href="#qrPixel" x="80" y="112" />
            <use xlink:href="#qrPixel" x="80" y="128" />
            <use xlink:href="#qrPixel" x="80" y="144" />
            <use xlink:href="#qrPixel" x="80" y="160" />
            <use xlink:href="#qrPixel" x="80" y="176" />
            <use xlink:href="#qrPixel" x="80" y="192" />
            <use xlink:href="#qrPixel" x="80" y="208" />
            <use xlink:href="#qrPixel" x="80" y="216" />
            <use xlink:href="#qrPixel" x="80" y="224" />
            <use xlink:href="#qrPixel" x="80" y="232" />
            <use xlink:href="#qrPixel" x="80" y="240" />
            <use xlink:href="#qrPixel" x="80" y="248" />
            <use xlink:href="#qrPixel" x="80" y="256" />
            <use xlink:href="#qrPixel" x="88" y="96" />
            <use xlink:href="#qrPixel" x="88" y="104" />
            <use xlink:href="#qrPixel" x="88" y="112" />
            <use xlink:href="#qrPixel" x="88" y="136" />
            <use xlink:href="#qrPixel" x="88" y="144" />
            <use xlink:href="#qrPixel" x="88" y="152" />
            <use xlink:href="#qrPixel" x="88" y="160" />
            <use xlink:href="#qrPixel" x="88" y="168" />
            <use xlink:href="#qrPixel" x="88" y="176" />
            <use xlink:href="#qrPixel" x="88" y="184" />
            <use xlink:href="#qrPixel" x="88" y="192" />
            <use xlink:href="#qrPixel" x="96" y="32" />
            <use xlink:href="#qrPixel" x="96" y="40" />
            <use xlink:href="#qrPixel" x="96" y="56" />
            <use xlink:href="#qrPixel" x="96" y="80" />
            <use xlink:href="#qrPixel" x="96" y="88" />
            <use xlink:href="#qrPixel" x="96" y="120" />
            <use xlink:href="#qrPixel" x="96" y="128" />
            <use xlink:href="#qrPixel" x="96" y="136" />
            <use xlink:href="#qrPixel" x="96" y="152" />
            <use xlink:href="#qrPixel" x="96" y="176" />
            <use xlink:href="#qrPixel" x="96" y="184" />
            <use xlink:href="#qrPixel" x="96" y="192" />
            <use xlink:href="#qrPixel" x="96" y="200" />
            <use xlink:href="#qrPixel" x="96" y="208" />
            <use xlink:href="#qrPixel" x="96" y="216" />
            <use xlink:href="#qrPixel" x="96" y="232" />
            <use xlink:href="#qrPixel" x="96" y="240" />
            <use xlink:href="#qrPixel" x="96" y="256" />
            <use xlink:href="#qrPixel" x="104" y="48" />
            <use xlink:href="#qrPixel" x="104" y="88" />
            <use xlink:href="#qrPixel" x="104" y="120" />
            <use xlink:href="#qrPixel" x="104" y="136" />
            <use xlink:href="#qrPixel" x="104" y="144" />
            <use xlink:href="#qrPixel" x="104" y="160" />
            <use xlink:href="#qrPixel" x="104" y="184" />
            <use xlink:href="#qrPixel" x="104" y="192" />
            <use xlink:href="#qrPixel" x="104" y="200" />
            <use xlink:href="#qrPixel" x="104" y="216" />
            <use xlink:href="#qrPixel" x="104" y="232" />
            <use xlink:href="#qrPixel" x="104" y="256" />
            <use xlink:href="#qrPixel" x="112" y="40" />
            <use xlink:href="#qrPixel" x="112" y="48" />
            <use xlink:href="#qrPixel" x="112" y="80" />
            <use xlink:href="#qrPixel" x="112" y="88" />
            <use xlink:href="#qrPixel" x="112" y="96" />
            <use xlink:href="#qrPixel" x="112" y="112" />
            <use xlink:href="#qrPixel" x="112" y="120" />
            <use xlink:href="#qrPixel" x="112" y="128" />
            <use xlink:href="#qrPixel" x="112" y="136" />
            <use xlink:href="#qrPixel" x="112" y="160" />
            <use xlink:href="#qrPixel" x="112" y="176" />
            <use xlink:href="#qrPixel" x="112" y="192" />
            <use xlink:href="#qrPixel" x="112" y="200" />
            <use xlink:href="#qrPixel" x="112" y="208" />
            <use xlink:href="#qrPixel" x="112" y="216" />
            <use xlink:href="#qrPixel" x="112" y="224" />
            <use xlink:href="#qrPixel" x="112" y="240" />
            <use xlink:href="#qrPixel" x="120" y="48" />
            <use xlink:href="#qrPixel" x="120" y="64" />
            <use xlink:href="#qrPixel" x="120" y="88" />
            <use xlink:href="#qrPixel" x="120" y="120" />
            <use xlink:href="#qrPixel" x="120" y="136" />
            <use xlink:href="#qrPixel" x="120" y="168" />
            <use xlink:href="#qrPixel" x="120" y="192" />
            <use xlink:href="#qrPixel" x="120" y="208" />
            <use xlink:href="#qrPixel" x="120" y="216" />
            <use xlink:href="#qrPixel" x="120" y="248" />
            <use xlink:href="#qrPixel" x="120" y="256" />
            <use xlink:href="#qrPixel" x="128" y="48" />
            <use xlink:href="#qrPixel" x="128" y="64" />
            <use xlink:href="#qrPixel" x="128" y="80" />
            <use xlink:href="#qrPixel" x="128" y="96" />
            <use xlink:href="#qrPixel" x="128" y="112" />
            <use xlink:href="#qrPixel" x="128" y="128" />
            <use xlink:href="#qrPixel" x="128" y="136" />
            <use xlink:href="#qrPixel" x="128" y="160" />
            <use xlink:href="#qrPixel" x="128" y="168" />
            <use xlink:href="#qrPixel" x="128" y="184" />
            <use xlink:href="#qrPixel" x="128" y="200" />
            <use xlink:href="#qrPixel" x="128" y="224" />
            <use xlink:href="#qrPixel" x="128" y="232" />
            <use xlink:href="#qrPixel" x="136" y="48" />
            <use xlink:href="#qrPixel" x="136" y="64" />
            <use xlink:href="#qrPixel" x="136" y="88" />
            <use xlink:href="#qrPixel" x="136" y="96" />
            <use xlink:href="#qrPixel" x="136" y="120" />
            <use xlink:href="#qrPixel" x="136" y="136" />
            <use xlink:href="#qrPixel" x="136" y="152" />
            <use xlink:href="#qrPixel" x="136" y="168" />
            <use xlink:href="#qrPixel" x="136" y="192" />
            <use xlink:href="#qrPixel" x="136" y="200" />
            <use xlink:href="#qrPixel" x="136" y="208" />
            <use xlink:href="#qrPixel" x="136" y="232" />
            <use xlink:href="#qrPixel" x="136" y="240" />
            <use xlink:href="#qrPixel" x="136" y="248" />
            <use xlink:href="#qrPixel" x="144" y="40" />
            <use xlink:href="#qrPixel" x="144" y="48" />
            <use xlink:href="#qrPixel" x="144" y="72" />
            <use xlink:href="#qrPixel" x="144" y="80" />
            <use xlink:href="#qrPixel" x="144" y="88" />
            <use xlink:href="#qrPixel" x="144" y="96" />
            <use xlink:href="#qrPixel" x="144" y="112" />
            <use xlink:href="#qrPixel" x="144" y="120" />
            <use xlink:href="#qrPixel" x="144" y="144" />
            <use xlink:href="#qrPixel" x="144" y="200" />
            <use xlink:href="#qrPixel" x="144" y="224" />
            <use xlink:href="#qrPixel" x="144" y="232" />
            <use xlink:href="#qrPixel" x="144" y="240" />
            <use xlink:href="#qrPixel" x="144" y="256" />
            <use xlink:href="#qrPixel" x="152" y="32" />
            <use xlink:href="#qrPixel" x="152" y="40" />
            <use xlink:href="#qrPixel" x="152" y="48" />
            <use xlink:href="#qrPixel" x="152" y="104" />
            <use xlink:href="#qrPixel" x="152" y="112" />
            <use xlink:href="#qrPixel" x="152" y="120" />
            <use xlink:href="#qrPixel" x="152" y="152" />
            <use xlink:href="#qrPixel" x="152" y="184" />
            <use xlink:href="#qrPixel" x="152" y="192" />
            <use xlink:href="#qrPixel" x="152" y="200" />
            <use xlink:href="#qrPixel" x="152" y="224" />
            <use xlink:href="#qrPixel" x="152" y="240" />
            <use xlink:href="#qrPixel" x="152" y="256" />
            <use xlink:href="#qrPixel" x="160" y="32" />
            <use xlink:href="#qrPixel" x="160" y="56" />
            <use xlink:href="#qrPixel" x="160" y="80" />
            <use xlink:href="#qrPixel" x="160" y="96" />
            <use xlink:href="#qrPixel" x="160" y="104" />
            <use xlink:href="#qrPixel" x="160" y="128" />
            <use xlink:href="#qrPixel" x="160" y="184" />
            <use xlink:href="#qrPixel" x="160" y="208" />
            <use xlink:href="#qrPixel" x="160" y="216" />
            <use xlink:href="#qrPixel" x="160" y="232" />
            <use xlink:href="#qrPixel" x="160" y="240" />
            <use xlink:href="#qrPixel" x="160" y="248" />
            <use xlink:href="#qrPixel" x="160" y="256" />
            <use xlink:href="#qrPixel" x="168" y="56" />
            <use xlink:href="#qrPixel" x="168" y="72" />
            <use xlink:href="#qrPixel" x="168" y="88" />
            <use xlink:href="#qrPixel" x="168" y="96" />
            <use xlink:href="#qrPixel" x="168" y="128" />
            <use xlink:href="#qrPixel" x="168" y="144" />
            <use xlink:href="#qrPixel" x="168" y="168" />
            <use xlink:href="#qrPixel" x="168" y="184" />
            <use xlink:href="#qrPixel" x="168" y="200" />
            <use xlink:href="#qrPixel" x="168" y="216" />
            <use xlink:href="#qrPixel" x="168" y="232" />
            <use xlink:href="#qrPixel" x="168" y="256" />
            <use xlink:href="#qrPixel" x="176" y="48" />
            <use xlink:href="#qrPixel" x="176" y="56" />
            <use xlink:href="#qrPixel" x="176" y="72" />
            <use xlink:href="#qrPixel" x="176" y="80" />
            <use xlink:href="#qrPixel" x="176" y="96" />
            <use xlink:href="#qrPixel" x="176" y="104" />
            <use xlink:href="#qrPixel" x="176" y="120" />
            <use xlink:href="#qrPixel" x="176" y="144" />
            <use xlink:href="#qrPixel" x="176" y="160" />
            <use xlink:href="#qrPixel" x="176" y="184" />
            <use xlink:href="#qrPixel" x="176" y="200" />
            <use xlink:href="#qrPixel" x="176" y="208" />
            <use xlink:href="#qrPixel" x="184" y="32" />
            <use xlink:href="#qrPixel" x="184" y="56" />
            <use xlink:href="#qrPixel" x="184" y="64" />
            <use xlink:href="#qrPixel" x="184" y="72" />
            <use xlink:href="#qrPixel" x="184" y="96" />
            <use xlink:href="#qrPixel" x="184" y="104" />
            <use xlink:href="#qrPixel" x="184" y="136" />
            <use xlink:href="#qrPixel" x="184" y="144" />
            <use xlink:href="#qrPixel" x="184" y="184" />
            <use xlink:href="#qrPixel" x="184" y="208" />
            <use xlink:href="#qrPixel" x="184" y="256" />
            <use xlink:href="#qrPixel" x="192" y="32" />
            <use xlink:href="#qrPixel" x="192" y="40" />
            <use xlink:href="#qrPixel" x="192" y="48" />
            <use xlink:href="#qrPixel" x="192" y="72" />
            <use xlink:href="#qrPixel" x="192" y="80" />
            <use xlink:href="#qrPixel" x="192" y="104" />
            <use xlink:href="#qrPixel" x="192" y="112" />
            <use xlink:href="#qrPixel" x="192" y="128" />
            <use xlink:href="#qrPixel" x="192" y="144" />
            <use xlink:href="#qrPixel" x="192" y="152" />
            <use xlink:href="#qrPixel" x="192" y="168" />
            <use xlink:href="#qrPixel" x="192" y="176" />
            <use xlink:href="#qrPixel" x="192" y="192" />
            <use xlink:href="#qrPixel" x="192" y="200" />
            <use xlink:href="#qrPixel" x="192" y="208" />
            <use xlink:href="#qrPixel" x="192" y="216" />
            <use xlink:href="#qrPixel" x="192" y="224" />
            <use xlink:href="#qrPixel" x="192" y="232" />
            <use xlink:href="#qrPixel" x="192" y="240" />
            <use xlink:href="#qrPixel" x="192" y="248" />
            <use xlink:href="#qrPixel" x="192" y="256" />
            <use xlink:href="#qrPixel" x="200" y="104" />
            <use xlink:href="#qrPixel" x="200" y="120" />
            <use xlink:href="#qrPixel" x="200" y="136" />
            <use xlink:href="#qrPixel" x="200" y="144" />
            <use xlink:href="#qrPixel" x="200" y="160" />
            <use xlink:href="#qrPixel" x="200" y="168" />
            <use xlink:href="#qrPixel" x="200" y="176" />
            <use xlink:href="#qrPixel" x="200" y="192" />
            <use xlink:href="#qrPixel" x="200" y="224" />
            <use xlink:href="#qrPixel" x="200" y="232" />
            <use xlink:href="#qrPixel" x="200" y="240" />
            <use xlink:href="#qrPixel" x="208" y="32" />
            <use xlink:href="#qrPixel" x="208" y="40" />
            <use xlink:href="#qrPixel" x="208" y="48" />
            <use xlink:href="#qrPixel" x="208" y="56" />
            <use xlink:href="#qrPixel" x="208" y="64" />
            <use xlink:href="#qrPixel" x="208" y="72" />
            <use xlink:href="#qrPixel" x="208" y="80" />
            <use xlink:href="#qrPixel" x="208" y="96" />
            <use xlink:href="#qrPixel" x="208" y="104" />
            <use xlink:href="#qrPixel" x="208" y="112" />
            <use xlink:href="#qrPixel" x="208" y="136" />
            <use xlink:href="#qrPixel" x="208" y="144" />
            <use xlink:href="#qrPixel" x="208" y="184" />
            <use xlink:href="#qrPixel" x="208" y="192" />
            <use xlink:href="#qrPixel" x="208" y="208" />
            <use xlink:href="#qrPixel" x="208" y="224" />
            <use xlink:href="#qrPixel" x="216" y="32" />
            <use xlink:href="#qrPixel" x="216" y="80" />
            <use xlink:href="#qrPixel" x="216" y="104" />
            <use xlink:href="#qrPixel" x="216" y="112" />
            <use xlink:href="#qrPixel" x="216" y="120" />
            <use xlink:href="#qrPixel" x="216" y="136" />
            <use xlink:href="#qrPixel" x="216" y="144" />
            <use xlink:href="#qrPixel" x="216" y="152" />
            <use xlink:href="#qrPixel" x="216" y="160" />
            <use xlink:href="#qrPixel" x="216" y="168" />
            <use xlink:href="#qrPixel" x="216" y="192" />
            <use xlink:href="#qrPixel" x="216" y="224" />
            <use xlink:href="#qrPixel" x="216" y="240" />
            <use xlink:href="#qrPixel" x="216" y="248" />
            <use xlink:href="#qrPixel" x="216" y="256" />
            <use xlink:href="#qrPixel" x="224" y="32" />
            <use xlink:href="#qrPixel" x="224" y="48" />
            <use xlink:href="#qrPixel" x="224" y="56" />
            <use xlink:href="#qrPixel" x="224" y="64" />
            <use xlink:href="#qrPixel" x="224" y="80" />
            <use xlink:href="#qrPixel" x="224" y="104" />
            <use xlink:href="#qrPixel" x="224" y="112" />
            <use xlink:href="#qrPixel" x="224" y="120" />
            <use xlink:href="#qrPixel" x="224" y="144" />
            <use xlink:href="#qrPixel" x="224" y="152" />
            <use xlink:href="#qrPixel" x="224" y="160" />
            <use xlink:href="#qrPixel" x="224" y="192" />
            <use xlink:href="#qrPixel" x="224" y="200" />
            <use xlink:href="#qrPixel" x="224" y="208" />
            <use xlink:href="#qrPixel" x="224" y="216" />
            <use xlink:href="#qrPixel" x="224" y="224" />
            <use xlink:href="#qrPixel" x="224" y="232" />
            <use xlink:href="#qrPixel" x="232" y="32" />
            <use xlink:href="#qrPixel" x="232" y="48" />
            <use xlink:href="#qrPixel" x="232" y="56" />
            <use xlink:href="#qrPixel" x="232" y="64" />
            <use xlink:href="#qrPixel" x="232" y="80" />
            <use xlink:href="#qrPixel" x="232" y="96" />
            <use xlink:href="#qrPixel" x="232" y="128" />
            <use xlink:href="#qrPixel" x="232" y="160" />
            <use xlink:href="#qrPixel" x="232" y="168" />
            <use xlink:href="#qrPixel" x="232" y="192" />
            <use xlink:href="#qrPixel" x="232" y="200" />
            <use xlink:href="#qrPixel" x="232" y="208" />
            <use xlink:href="#qrPixel" x="232" y="216" />
            <use xlink:href="#qrPixel" x="232" y="232" />
            <use xlink:href="#qrPixel" x="232" y="248" />
            <use xlink:href="#qrPixel" x="232" y="256" />
            <use xlink:href="#qrPixel" x="240" y="32" />
            <use xlink:href="#qrPixel" x="240" y="48" />
            <use xlink:href="#qrPixel" x="240" y="56" />
            <use xlink:href="#qrPixel" x="240" y="64" />
            <use xlink:href="#qrPixel" x="240" y="80" />
            <use xlink:href="#qrPixel" x="240" y="112" />
            <use xlink:href="#qrPixel" x="240" y="128" />
            <use xlink:href="#qrPixel" x="240" y="136" />
            <use xlink:href="#qrPixel" x="240" y="144" />
            <use xlink:href="#qrPixel" x="240" y="168" />
            <use xlink:href="#qrPixel" x="240" y="176" />
            <use xlink:href="#qrPixel" x="240" y="184" />
            <use xlink:href="#qrPixel" x="240" y="192" />
            <use xlink:href="#qrPixel" x="240" y="200" />
            <use xlink:href="#qrPixel" x="240" y="224" />
            <use xlink:href="#qrPixel" x="240" y="240" />
            <use xlink:href="#qrPixel" x="248" y="32" />
            <use xlink:href="#qrPixel" x="248" y="80" />
            <use xlink:href="#qrPixel" x="248" y="96" />
            <use xlink:href="#qrPixel" x="248" y="112" />
            <use xlink:href="#qrPixel" x="248" y="136" />
            <use xlink:href="#qrPixel" x="248" y="144" />
            <use xlink:href="#qrPixel" x="248" y="152" />
            <use xlink:href="#qrPixel" x="248" y="160" />
            <use xlink:href="#qrPixel" x="248" y="168" />
            <use xlink:href="#qrPixel" x="248" y="200" />
            <use xlink:href="#qrPixel" x="248" y="208" />
            <use xlink:href="#qrPixel" x="248" y="216" />
            <use xlink:href="#qrPixel" x="248" y="224" />
            <use xlink:href="#qrPixel" x="248" y="232" />
            <use xlink:href="#qrPixel" x="248" y="248" />
            <use xlink:href="#qrPixel" x="248" y="256" />
            <use xlink:href="#qrPixel" x="256" y="32" />
            <use xlink:href="#qrPixel" x="256" y="40" />
            <use xlink:href="#qrPixel" x="256" y="48" />
            <use xlink:href="#qrPixel" x="256" y="56" />
            <use xlink:href="#qrPixel" x="256" y="64" />
            <use xlink:href="#qrPixel" x="256" y="72" />
            <use xlink:href="#qrPixel" x="256" y="80" />
            <use xlink:href="#qrPixel" x="256" y="96" />
            <use xlink:href="#qrPixel" x="256" y="104" />
            <use xlink:href="#qrPixel" x="256" y="120" />
            <use xlink:href="#qrPixel" x="256" y="136" />
            <use xlink:href="#qrPixel" x="256" y="144" />
            <use xlink:href="#qrPixel" x="256" y="200" />
            <use xlink:href="#qrPixel" x="256" y="224" />
            <use xlink:href="#qrPixel" x="256" y="240" />
        </g>
    </g>
</svg>