<svg xmlns="http://www.w3.org/2000/svg" width="732.80232" height="507.20403"
    viewBox="0 0 732.80232 507.20403" xmlns:xlink="http://www.w3.org/1999/xlink" role="img"
    artist="Katerina Limpitsouni" source="https://undraw.co/">
    <path d="M795.805,364.96165s26.03815-6,40.35913,5-18.2267,36-18.2267,36Z"
        transform="translate(-233.59884 -196.39799)" fill="white" />
    <path
        d="M768.87787,508.44478a10.05577,10.05577,0,0,0-7.53981-13.45016l-5.26215-35.34529-13.828,12.3944,7.117,31.66428a10.11027,10.11027,0,0,0,19.51293,4.73677Z"
        transform="translate(-233.59884 -196.39799)" fill="--illustration-skin-colour" />
    <polygon
        points="589.784 495.536 577.551 494.724 574.861 447.154 592.915 448.352 589.784 495.536"
        fill="--illustration-skin-colour" />
    <path
        d="M568.5427,490.92263h23.64386a0,0,0,0,1,0,0V505.8095a0,0,0,0,1,0,0H553.65583a0,0,0,0,1,0,0v0A14.88686,14.88686,0,0,1,568.5427,490.92263Z"
        fill="--illustration-suit-colour" />
    <polygon
        points="568.643 478.601 557.142 482.847 535.293 440.505 552.268 434.239 568.643 478.601"
        fill="--illustration-skin-colour" />
    <path
        d="M783.6189,677.01413h23.64386a0,0,0,0,1,0,0V691.901a0,0,0,0,1,0,0H768.732a0,0,0,0,1,0,0v0A14.88686,14.88686,0,0,1,783.6189,677.01413Z"
        transform="translate(-421.86408 118.82616) rotate(-20.26053)"
        fill="--illustration-suit-colour" />
    <path
        d="M768.8,492.249s-12.3886,6.67078-8.57672,33.35393l3.81187,101.01476,21.05939,46.04944,18.10642-4.76485-11.52969-37.47271,15.24751-65.75489,2,119.42808,17.15345,2.85891L850.75539,488.4371l-31.448-14.29454Z"
        transform="translate(-233.59884 -196.39799)" fill="--illustration-suit-pants-colour" />
    <circle cx="579.48175" cy="132.66603" r="24.56103" fill="--illustration-skin-colour" />
    <path
        d="M769.72,495.18607a13.99017,13.99017,0,0,1-4.92871-.57129l-.34961-.15039.05176-.37793c.06641-.48437,6.61035-48.59765,2.88379-58.84472-3.20117-8.80323-9.78418-38.52588-11.72461-47.42579a4.8195,4.8195,0,0,1,2.37109-5.26269l35.53906-19.918a6.48536,6.48536,0,0,1,8.70411,2.24854l9.0332,14.5913,14.10059-14.10058a6.49043,6.49043,0,0,1,8.32421-.729l29.72559,20.80811a6.87172,6.87172,0,0,1,2.4502,8.24072c-5.67188,14.02344-18.45215,51.32324-14.64747,94.69922l.06153.70508-.68457-.17774c-.25684-.0664-25.915-6.54687-52.15039.9502C783.21507,494.232,774.45823,495.18607,769.72,495.18607Z"
        transform="translate(-233.59884 -196.39799)" fill="#ccc" />
    <path
        d="M759.24928,383.105h0a4.35486,4.35486,0,0,0-4.81278,3.14888L738.305,444.50644l3.81188,35.25987,18.10642-2.8589-1.90594-24.77721,13.34157-31.448-8.80712-34.34778A4.35487,4.35487,0,0,0,759.24928,383.105Z"
        transform="translate(-233.59884 -196.39799)" fill="#ccc" />
    <path
        d="M832.07289,294.58622a17.506,17.506,0,0,0-16.14122-8.58806,34.30582,34.30582,0,0,0-9.7548,2.73058l-16.05606,6.26317c-4.15471,1.62067-8.705,3.60587-10.50787,7.68482-1.6733,3.78583-.42488,8.15807.83888,12.09956l6.00717,18.73558a57.031,57.031,0,0,1,3.40416-12.37627c1.74494-3.9173,4.50473-7.52937,8.3203-9.48677,4.17057-2.13951,9.08622-2.09521,13.76813-1.86989,6.63083.31911,13.84041,1.16273,18.55166,5.83967a19.26951,19.26951,0,0,1,4.88946,9.54931,57.47859,57.47859,0,0,1,1.02534,10.8092,89.61376,89.61376,0,0,0,6.84346-14.67147,36.3,36.3,0,0,0,2.54268-11.876,16.70267,16.70267,0,0,0-3.82832-11.29616c-2.71259-3.03167-7.13245-4.6684-11.01943-3.46817"
        transform="translate(-233.59884 -196.39799)" fill="--illustration-hair-colour" />
    <path
        d="M845.73212,522.44478a10.05576,10.05576,0,0,1,7.53982-13.45016l5.26214-35.34529,13.828,12.3944-7.117,31.66428a10.11027,10.11027,0,0,1-19.51293,4.73677Z"
        transform="translate(-233.59884 -196.39799)" fill="--illustration-skin-colour" />
    <path
        d="M862.81589,385.52648h0a6.41309,6.41309,0,0,1,5.35078,6.00558l5.46,109.19958H853.6143l-6.67078-58.13114,8.48945-51.78567A6.41309,6.41309,0,0,1,862.81589,385.52648Z"
        transform="translate(-233.59884 -196.39799)" fill="#ccc" />
    <path
        d="M904.15708,702.16536a246.30237,246.30237,0,0,1,20.38471-77.73489q4.60066-10.2776,10.1275-20.10267c.94658-1.6853-1.64387-3.1994-2.59042-1.51415a249.70683,249.70683,0,0,0-27.786,76.65535q-2.08614,11.26863-3.13582,22.69636c-.17782,1.9216,2.8233,1.90947,3,0Z"
        transform="translate(-233.59884 -196.39799)" fill="#e6e6e6" />
    <circle cx="708.33654" cy="393.74114" r="19" fill="#e6e6e6" />
    <path
        d="M906.10066,702.67a159.78768,159.78768,0,0,1,13.2245-50.43025q2.98467-6.66755,6.57018-13.04153a.97385.97385,0,0,0-1.68052-.98231,161.99656,161.99656,0,0,0-18.02606,49.7299q-1.35336,7.31049-2.03434,14.72419c-.11537,1.24663,1.8316,1.23877,1.94624,0Z"
        transform="translate(-233.59884 -196.39799)" fill="#e6e6e6" />
    <circle cx="697.01036" cy="433.59537" r="12.32619" fill="#e6e6e6" />
</svg>